<svg xmlns="http://www.w3.org/2000/svg" id="canvas" width="1000" height="500" style="display: block; margin: 0 auto; background-color: white; cursor: default;"><path id="34a65878-19cf-4622-abe4-06a50d66f0f3" d="M 354 89 L 354 89.25 L 354 89.9375 L 354 90.953125 L 354 92.21484375 L 354 94.1611328125 L 354 96.620849609375 L 354 99.96563720703125 L 354 104.22422790527344 L 354 109.41817092895508 L 354 115.56362819671631 L 354 122.42272114753723 L 354 129.81704086065292 L 354 137.6127806454897 L 354 145.45958548411727 L 354 153.34468911308795 L 354 161.25851683481596 L 354 168.94388762611197 L 354.25 176.45791571958398 L 354.4375 183.59343678968798 L 354.578125 190.195077592266 L 354.68359375 196.3963081941995 L 354.7626953125 201.79723114564962 L 355.072021484375 206.3479233592372 L 355.30401611328125 210.26094251942789 L 355.47801208496094 213.4457068895709 L 355.6085090637207 215.83428016717818 L 355.7063817977905 217.62571012538365" fill="transparent" stroke="#1a1a18" stroke-width="2" stroke-linejoin="round" stroke-linecap="round" style="opacity: 1; cursor: default; pointer-events: none;"/><path id="81325e45-97b1-462c-a191-b758d84e50b5" d="M 355 86 L 355.25 86 L 355.4375 86 L 355.828125 86 L 356.62109375 86 L 357.7158203125 85.75 L 359.036865234375 85.5625 L 360.52764892578125 85.421875 L 362.39573669433594 85.31640625 L 364.54680252075195 85.2373046875 L 367.16010189056396 85.177978515625 L 370.120076417923 85.13348388671875 L 373.59005731344223 85.10011291503906 L 377.6925429850817 84.8250846862793 L 382.51940723881125 84.36881351470947 L 388.13955542910844 83.7766101360321 L 394.60466657183133 83.08245760202408 L 401.4534999288735 82.06184320151806 L 408.5901249466551 81.04638240113854 L 415.69259370999134 80.03478680085391 L 422.7694452824935 79.02609010064043 L 429.57708396187013 78.01956757548032 L 435.9328129714026 77.26467568161024 L 441.69960972855193 76.69850676120768 L 447.02470729641396 76.27388007090576 L 451.7685304723105 75.95541005317932 L 455.8263978542329 75.71655753988449 L 459.36979839067465 75.53741815491337 L 462.277348793006 75.65306361618502 L 464.7080115947545 75.73979771213877 L 466.5310086960659 75.80484828410408 L 467.89825652204945 75.85363621307806 L 468.9236923915371 75.89022715980855" fill="transparent" stroke="#1a1a18" stroke-width="2" stroke-linejoin="round" stroke-linecap="round" style="opacity: 1; cursor: default; pointer-events: none;"/><path id="dcb0e428-5c03-4d3a-8cbe-b767e55c5bd8" d="M 356 215 L 356.25 215 L 356.6875 215 L 357.265625 215 L 357.94921875 215 L 358.7119140625 215 L 359.783935546875 215 L 361.08795166015625 215 L 362.5659637451172 215.25 L 364.4244728088379 215.4375 L 366.8183546066284 215.828125 L 370.1137659549713 216.37109375 L 374.0853244662285 217.0283203125 L 378.81399334967136 217.521240234375 L 384.3604950122535 217.89093017578125 L 390.77037125919014 217.91819763183594 L 398.0777784443926 217.43864822387695 L 405.80833383329445 216.57898616790771 L 413.60625037497084 215.4342396259308 L 421.20468778122813 214.0756797194481 L 428.4035158359211 213.05675978958607 L 435.0526368769408 212.29256984218955 L 441.0394776577056 211.71942738164216 L 446.2796082432792 211.28957053623162 L 450.7097061824594 210.96717790217372 L 454.5322796368446 210.9753834266303 L 457.89920972763343 211.23153756997272 L 460.6744072957251 211.42365317747954 L 463.0058054717938 211.81773988310965 L 465.00435410384534 212.36330491233224 L 466.503265577884 212.77247868424917 L 467.877449183413 213.3293590131869" fill="transparent" stroke="#1a1a18" stroke-width="2" stroke-linejoin="round" stroke-linecap="round" style="opacity: 1; cursor: default; pointer-events: none;"/><path id="657b035f-b6aa-4823-8303-d0308d83564b" d="M 469 78 L 469 77.75 L 469 77.5625 L 469 77.421875 L 469 77.31640625 L 469 76.9873046875 L 469 76.740478515625 L 469 76.55535888671875 L 469 76.41651916503906 L 469 76.3123893737793 L 469 76.23429203033447 L 469 76.17571902275085 L 469 76.13178926706314 L 469 76.09884195029736 L 469 76.07413146272302 L 469 76.30559859704226 L 469 76.7291989477817 L 469 77.04689921083627 L 469 77.7851744081272 L 469 78.5888808060954 L 469 79.69166060457155 L 469 81.26874545342866 L 469.25 83.2015590900715 L 469.4375 85.40116931755362 L 469.828125 88.05087698816521 L 470.12109375 91.28815774112391 L 470.3408203125 94.71611830584294 L 470.755615234375 98.5370887293822 L 471.06671142578125 102.90281654703665 L 471.30003356933594 107.42711241027749 L 471.47502517700195 112.32033430770812 L 471.60626888275146 117.7402507307811 L 471.7047016620636 123.30518804808582 L 471.7785262465477 128.72889103606437 L 471.5838946849108 134.29666827704827 L 471.4379210136831 139.7225012077862 L 471.3284407602623 144.79187590583965 L 471.24633057019673 149.59390692937973 L 471.18474792764755 153.9454301970348 L 471.13856094573566 158.2090726477761 L 471.35392070930175 162.15680448583208 L 471.5154405319763 165.86760336437408 L 471.63658039898223 169.40070252328056 L 471.7274352992367 172.80052689246043 L 471.7955764744275 175.85039516934532 L 471.84668235582063 178.63779637700898 L 471.8850117668655 181.22834728275674 L 471.9137588251491 183.67126046206755 L 471.9353191188618 185.75344534655068 L 471.95148933914635 187.815084009913 L 471.9636170043598 189.61131300743475 L 471.97271275326983 191.45848475557605 L 471.97953456495236 193.34386356668205 L 471.9846509237143 195.25789767501152 L 471.9884881927857 197.19342325625865 L 471.9913661445893 199.14506744219398 L 471.99352460844193 200.85880058164548 L 471.99514345633145 202.1441004362341 L 471.9963575922486 203.35807532717558 L 471.99726819418646 204.5185564953817 L 472.24795114563983 205.63891737153625 L 472.43596335922985 206.97918802865217 L 472.5769725194224 208.23439102148913 L 472.6827293895668 209.42579326611684 L 472.76204704217514 210.56934494958762 L 473.0715352816313 211.6770087121907 L 473.30365146122347 212.50775653414303 L 473.4777385959176 213.13081740060727 L 473.6083039469382 213.34811305045545 L 473.95622796020365 213.01108478784158 L 474.2171709701527 211.7583135908812" fill="transparent" stroke="#1a1a18" stroke-width="2" stroke-linejoin="round" stroke-linecap="round" style="opacity: 1; cursor: default; pointer-events: none;"/><path id="261edfbe-fcbf-4fb2-b64c-dc614412ab1e" d="M 221 161 L 221.5 161 L 222.375 161 L 223.78125 161.25 L 225.5859375 161.4375 L 227.939453125 161.578125 L 230.95458984375 161.68359375 L 234.4659423828125 161.7626953125 L 238.59945678710938 161.822021484375 L 243.44959259033203 161.86651611328125 L 248.83719444274902 161.64988708496094 L 254.62789583206177 161.2374153137207 L 260.7209218740463 160.67806148529053 L 267.29069140553474 160.0085461139679 L 274.21801855415106 159.25640958547592 L 281.4135139156133 158.44230718910694 L 288.56013543670997 157.8317303918302 L 295.4201015775325 157.12379779387265 L 302.31507618314936 156.5928483454045 L 308.736307137362 156.19463625905337 L 314.5522303530215 155.89597719429003 L 319.91417276476614 155.67198289571752 L 324.6856295735746 155.50398717178814 L 328.7642221801809 155.6279903788411 L 332.3231666351357 155.72099278413083 L 335.24237497635175 155.7907445880981 L 337.6817812322638 156.0930584410736 L 339.51133592419785 156.3197938308052 L 340.8835019431484 156.4898453731039 L 341.9126264573613 156.61738402982792 L 342.68446984302096 156.71303802237094 L 343.26335238226574 156.7847785167782" fill="transparent" stroke="#1a1a18" stroke-width="2" stroke-linejoin="round" stroke-linecap="round" style="opacity: 1; cursor: default; pointer-events: none;"/><path id="7222ff84-a082-486c-b36c-828b45ae29bc" d="M 471 155 L 471.25 155 L 471.4375 155 L 471.578125 155 L 471.68359375 155 L 471.7626953125 155 L 471.822021484375 155 L 471.86651611328125 155 L 471.89988708496094 155 L 472.1749153137207 155 L 472.6311864852905 155 L 473.2233898639679 155 L 474.1675423979759 155 L 475.37565679848194 155 L 477.03174259886146 155 L 479.2738069491461 155 L 482.45535521185957 155 L 486.3415164088947 155 L 491.006137306671 155.25 L 496.25460298000326 155.4375 L 502.19095223500244 155.828125 L 508.89321417625183 156.12109375 L 516.4199106321889 156.3408203125 L 524.8149329741417 156.505615234375 L 534.1111997306062 156.37921142578125 L 544.3333997979547 156.03440856933594 L 554.750049848466 155.77580642700195 L 566.8125373863495 155.33185482025146 L 577.3594030397621 154.9988911151886 L 586.0195522798216 154.74916833639145 L 593.2646642098662 154.5618762522936 L 599.1984981573996 154.6714071892202 L 603.8988736180497 154.75355539191514 L 607.4241552135372 155.06516654393636 L 610.0681164101529 155.29887490795227 L 612.0510873076147 155.4741561809642 L 613.538315480711 155.60561713572315 L 614.6537366105333 155.70421285179236" fill="transparent" stroke="#1a1a18" stroke-width="2" stroke-linejoin="round" stroke-linecap="round" style="opacity: 1; cursor: default; pointer-events: none;"/><path id="bcff7625-1b2a-4c0c-844f-631e9e2f8269" d="M 364 71 L 364 70.25 L 364 69.4375 L 364 68.328125 L 363.75 66.74609375 L 363.5625 64.8095703125 L 363.171875 62.357177734375 L 362.87890625 59.51788330078125 L 362.4091796875 56.63841247558594 L 362.056884765625 53.72880935668945 L 361.79266357421875 51.04660701751709 L 361.59449768066406 48.78495526313782 L 361.44587326049805 46.58871644735336 L 361.33440494537354 44.69153733551502 L 361.50080370903015 43.01865300163627 L 361.8756027817726 41.7639897512272 L 362.40670208632946 40.5729923134204 L 363.3050265647471 39.4297442350653 L 364.2287699235603 38.322308176298975 L 365.42157744267024 37.49173113222423 L 366.5661830820027 36.86879834916817 L 367.674637311502 36.40159876187613 L 368.7559779836265 36.0511990714071 L 369.8169834877199 36.03839930355532" fill="transparent" stroke="#1a1a18" stroke-width="2" stroke-linejoin="round" stroke-linecap="round" style="opacity: 1; cursor: default; pointer-events: none;"/><path id="43ed3647-31e7-4fd0-b87c-f6781a562cb5" d="M 356 57 L 356.25 57 L 356.6875 57 L 357.015625 57 L 357.51171875 57 L 358.1337890625 56.75 L 359.100341796875 56.5625 L 360.07525634765625 56.421875 L 361.3064422607422 56.31640625 L 362.47983169555664 56.2373046875 L 363.8598737716675 56.177978515625 L 365.1449053287506 56.13348388671875 L 366.35867899656296 56.10011291503906" fill="transparent" stroke="#1a1a18" stroke-width="2" stroke-linejoin="round" stroke-linecap="round" style="opacity: 1; cursor: default; pointer-events: none;"/><path id="ec2213a6-28d0-41fc-8ec6-dad423c543d8" d="M 371 58 L 371 58.25 L 371 58.4375 L 371.25 58.578125 L 371.4375 58.68359375 L 371.578125 58.7626953125 L 371.68359375 59.072021484375 L 372.0126953125 59.55401611328125 L 372.259521484375 60.16551208496094 L 372.69464111328125 61.1241340637207 L 373.02098083496094 62.09310054779053 L 373.5157356262207 63.069825410842896 L 373.8868017196655 64.05236905813217 L 374.41510128974915 64.78927679359913 L 374.81132596731186 65.34195759519935 L 375.3584944754839 65.75646819639951 L 376.0188708566129 66.06735114729963 L 376.5141531424597 66.30051336047472 L 377.13561485684477 66.47538502035604 L 377.8517111426336 66.60653876526703 L 378.3887833569752 66.70490407395027 L 379.0415875177314 66.5286780554627 L 379.53119063829854 65.89650854159703 L 380.1483929787239 65.17238140619777 L 380.61129473404293 64.12928605464833 L 380.9584710505322 62.84696454098625 L 381.21885328789915 61.63522340573969 L 381.1641399659244 60.22641755430477 L 381.1231049744433 58.91981316572858 L 380.8423287308325 57.93985987429643 L 380.6317465481244 57.20489490572233" fill="transparent" stroke="#1a1a18" stroke-width="2" stroke-linejoin="round" stroke-linecap="round" style="opacity: 1; cursor: default; pointer-events: none;"/><path id="f0a0dfd8-75f2-4961-ade8-2fba4a08161a" d="M 387 58 L 387 58.25 L 387 58.9375 L 387 59.953125 L 387 60.96484375 L 387 62.2236328125 L 387 63.417724609375 L 387 64.31329345703125 L 387.25 65.23497009277344 L 387.4375 65.92622756958008 L 387.578125 66.44467067718506 L 387.68359375 66.8335030078888 L 387.7626953125 66.8751272559166 L 387.822021484375 66.40634544193745 L 387.86651611328125 65.55475908145308 L 387.89988708496094 64.41606931108981 L 387.9249153137207 62.81205198331736 L 388.1936864852905 61.10903898748802 L 388.3952648639679 59.331779240616015 L 388.5464486479759 57.74883443046201 L 388.90983648598194 56.31162582284651 L 389.18237736448646 55.23371936713488 L 389.63678302336484 54.42528952535116 L 389.97758726752363 53.81896714401337 L 390.4831904506427 53.36422535801003 L 390.86239283798204 53.273169018507524 L 391.39679462848653 53.45487676388064 L 392.0475959713649 54.09115757291048 L 392.7856969785237 54.818368179682864 L 393.58927273389276 55.86377613476215 L 394.44195455041955 57.147832101071614 L 395.0814659128147 58.61087407580371 L 395.81109943461104 59.95815555685278 L 396.35832457595825 61.21861666763959 L 396.7687434319687 62.41396250072969 L 397.3265575739765 63.310471875547265 L 397.7449181804824 63.98285390666045 L 398.0586886353618 64.48714042999534 L 398.2940164765214 64.8653553224965 L 398.47051235739104 64.89901649187237 L 398.6028842680433 64.67426236890428" fill="transparent" stroke="#1a1a18" stroke-width="2" stroke-linejoin="round" stroke-linecap="round" style="opacity: 1; cursor: default; pointer-events: none;"/><path id="d06eb63c-6a64-437b-82c4-c2972990ed7d" d="M 410 53 L 409.5 52.75 L 409.125 52.8125 L 408.59375 53.109375 L 407.9453125 53.58203125 L 407.208984375 54.4365234375 L 406.65673828125 55.577392578125 L 406.2425537109375 56.68304443359375 L 405.9319152832031 58.01228332519531 L 405.69893646240234 59.509212493896484 L 405.52420234680176 60.88190937042236 L 405.6431517601013 62.16143202781677 L 405.732363820076 63.37107402086258 L 406.299272865057 64.52830551564693 L 406.97445464879274 65.3962291367352 L 407.73084098659456 66.0471718525514 L 408.7981307399459 66.53537888941355 L 409.84859805495944 66.65153416706016 L 411.1364485412196 66.48865062529512 L 412.6023364059147 65.86648796897134" fill="transparent" stroke="#1a1a18" stroke-width="2" stroke-linejoin="round" stroke-linecap="round" style="opacity: 1; cursor: default; pointer-events: none;"/><path id="a7a36dee-62a9-46fd-8c6d-4dcbab3d67ab" d="M 420 31 L 419.75 31 L 419.5625 31 L 419.421875 31.5 L 419.31640625 32.375 L 419.2373046875 33.78125 L 419.177978515625 35.5859375 L 419.13348388671875 38.189453125 L 419.35011291503906 41.39208984375 L 419.5125846862793 45.0440673828125 L 419.8844385147095 49.033050537109375 L 420.1633288860321 53.02478790283203 L 420.6224966645241 56.51859092712402 L 420.96687249839306 59.63894319534302 L 421.4751543737948 62.22920739650726 L 421.8563657803461 64.17190554738045 L 422.1422743352596 65.62892916053534 L 422.3567057514447 66.4716968704015" fill="transparent" stroke="#1a1a18" stroke-width="2" stroke-linejoin="round" stroke-linecap="round" style="opacity: 1; cursor: default; pointer-events: none;"/><path id="a7bc40da-0c7f-4aa2-b106-d2dc3a46ce08" d="M 418 57 L 418 56.75 L 418 56.5625 L 418.25 56.421875 L 418.6875 56.06640625 L 419.515625 55.7998046875 L 420.38671875 55.349853515625 L 421.5400390625 54.76239013671875 L 422.655029296875 54.07179260253906 L 423.99127197265625 53.5538444519043 L 425.2434539794922 52.91538333892822 L 426.43259048461914 52.43653750419617" fill="transparent" stroke="#1a1a18" stroke-width="2" stroke-linejoin="round" stroke-linecap="round" style="opacity: 1; cursor: default; pointer-events: none;"/><path id="4d001149-2c5b-4a13-ad88-98c2f944f048" d="M 434 52 L 434 52.25 L 434.25 52.6875 L 434.4375 53.515625 L 434.828125 54.63671875 L 435.12109375 55.7275390625 L 435.3408203125 57.045654296875 L 435.505615234375 58.28424072265625 L 435.62921142578125 59.46318054199219 L 435.72190856933594 60.59738540649414 L 435.79143142700195 61.448039054870605 L 435.84357357025146 62.086029291152954 L 435.8826801776886 62.314521968364716 L 435.91201013326645 61.98589147627354" fill="transparent" stroke="#1a1a18" stroke-width="2" stroke-linejoin="round" stroke-linecap="round" style="opacity: 1; cursor: default; pointer-events: none;"/><path id="80bfc92b-a2f0-4034-8358-8634cdfdfd3d" d="M 431 38 L 431.25 38.25 L 431.6875 38.6875 L 432.265625 39.265625 L 432.94921875 39.69921875" fill="transparent" stroke="#1a1a18" stroke-width="2" stroke-linejoin="round" stroke-linecap="round" style="opacity: 1; cursor: default; pointer-events: none;"/><path id="36d2b881-aab1-464f-bee1-0b28c9d33f60" d="M 443 53 L 443 53.25 L 443 53.4375 L 443 53.828125 L 443 54.37109375 L 443 55.0283203125 L 443.25 55.771240234375 L 443.4375 56.57843017578125 L 443.828125 57.18382263183594 L 444.37109375 57.63786697387695 L 444.7783203125 57.978400230407715 L 445.333740234375 58.233800172805786 L 445.75030517578125 58.42535012960434 L 446.31272888183594 58.319012597203255 L 446.73454666137695 57.73925944790244 L 447.0509099960327 57.05444458592683 L 447.28818249702454 56.29083343944512 L 447.4661368727684 55.46812507958384 L 447.3496026545763 54.35109380968788 L 447.0122019909322 53.26332035726591 L 446.75915149319917 52.44749026794943 L 446.3193636198994 51.835617700962075 L 445.73952271492453 51.376713275721556 L 445.0546420361934 51.03253495679117" fill="transparent" stroke="#1a1a18" stroke-width="2" stroke-linejoin="round" stroke-linecap="round" style="opacity: 1; cursor: default; pointer-events: none;"/><path id="bac6d94b-9981-49fb-86ff-a4fa2a164ce9" d="M 453 51 L 453 51.25 L 453 51.6875 L 453.25 52.515625 L 453.4375 53.63671875 L 453.578125 54.7275390625 L 453.68359375 56.045654296875 L 454.0126953125 57.28424072265625 L 454.259521484375 58.21318054199219 L 454.44464111328125 58.90988540649414 L 454.58348083496094 59.432414054870605 L 454.9376106262207 59.574310541152954 L 455.4532079696655 59.180732905864716 L 456.08990597724915 58.38554967939854 L 456.81742948293686 56.7891622595489 L 457.36307211220264 54.84187169466168 L 458.022304084152 52.88140377099626 L 458.516728063114 51.16105282824719 L 458.8875460473355 49.620789621185395 L 459.4156595355016 48.465592215889046 L 459.8117446516262 47.599194161916785 L 460.10880848871966 46.94939562143759 L 460.58160636653975 46.71204671607819 L 460.9362047749048 47.03403503705864 L 461.4521535811786 47.775526277793986 L 462.08911518588394 48.83164470834549 L 462.56683638941297 50.12373353125912 L 462.92512729205976 51.84280014844434 L 463.44384546904485 53.63210011133326 L 463.83288410178363 55.47407508349994 L 464.1246630763377 57.355556312624955 L 464.3434973072533 59.01666723446871 L 464.50762298044 60.262500425851535 L 464.63071723533 61.19687531938865 L 464.7230379264975 61.39765648954149" fill="transparent" stroke="#1a1a18" stroke-width="2" stroke-linejoin="round" stroke-linecap="round" style="opacity: 1; cursor: default; pointer-events: none;"/><path id="c1e195af-0b3e-4314-b476-23d811f376c4" d="M 490 51 L 489.75 51 L 489.5625 51 L 489.421875 51.25 L 489.31640625 51.6875 L 489.2373046875 52.515625 L 489.177978515625 53.38671875 L 489.13348388671875 54.5400390625 L 489.10011291503906 55.655029296875 L 489.0750846862793 56.74127197265625 L 489.0563135147095 57.55595397949219 L 489.0422351360321 58.16696548461914 L 489.0316763520241 58.625224113464355 L 489.02375726401806 58.96891808509827 L 489.01781794801354 59.2266885638237 L 489.26336346101016 58.920016422867775 L 489.4475225957576 58.19001231715083 L 489.8356419468182 56.89250923786312 L 490.12673146011366 55.41938192839734 L 490.59504859508525 53.81453644629801 L 491.19628644631393 52.360902334723505 L 491.89721483473545 51.02067675104263 L 492.4229111260516 49.76550756328197 L 493.0671833445387 48.82413067246148 L 493.800387508404 48.11809800434611 L 494.600290631303 47.58857350325958 L 495.45021797347727 47.44143012744469 L 496.33766348010795 47.83107259558352 L 497.25324761008096 48.62330444668764 L 498.1899357075607 49.71747833501573 L 499.1424517806705 51.038108751261795 L 500.1068388355029 52.528581563446345 L 500.8301291266272 53.89643617258476 L 501.3725968449704 55.42232712943857 L 502.02944763372784 56.56674534707893 L 502.5220857252959 57.6750590103092 L 502.8915642939719 58.506294257731895 L 503.1686732204789 59.12972069329892 L 503.3765049153592 59.597290519974194 L 503.5323786865194 59.947967889980646 L 503.89928401488953 59.960975917485484" fill="transparent" stroke="#1a1a18" stroke-width="2" stroke-linejoin="round" stroke-linecap="round" style="opacity: 1; cursor: default; pointer-events: none;"/><path id="3e77aa35-4e51-4eae-9faf-8717949f029f" d="M 513 50 L 512.5 50 L 512.125 50 L 511.84375 50 L 511.3828125 50 L 511.037109375 50 L 510.52783203125 50 L 510.1458740234375 50.5 L 509.8594055175781 51.125 L 509.6445541381836 51.84375 L 509.4834156036377 52.6328125 L 509.36256170272827 53.474609375 L 509.5219212770462 54.10595703125 L 509.89144095778465 54.5794677734375 L 510.4185807183385 54.934600830078125 L 511.06393553875387 55.200950622558594 L 511.7979516540654 55.150712966918945 L 512.348463740549 54.86303472518921 L 512.7613478054118 54.14727604389191 L 513.3210108540588 53.36045703291893 L 513.7407581405441 52.5203427746892 L 514.0555686054081 51.6402570810169 L 514.2916764540561 50.730192810762674 L 514.4687573405421 50.047644608072005 L 514.6015680054065 49.535733456054004 L 514.7011760040549 49.1518000920405 L 514.7758820030411 48.86385006903038 L 514.8319115022808 48.89788755177278 L 514.8739336267106 49.17341566382959 L 514.9054502200329 49.88006174787219 L 514.9290876650247 50.91004631090414 L 514.9468157487685 52.18253473317811 L 514.9601118115763 53.38690104988358 L 515.2200838586823 54.790175787412686 L 515.4150628940117 55.84263184055951 L 515.5612971705089 56.881973880419636 L 515.9209728778817 57.661480410314724 L 516.1907296584113 58.246110307736046 L 516.3930472438085 58.684582730802035 L 516.7947854328563 58.76343704810152" fill="transparent" stroke="#1a1a18" stroke-width="2" stroke-linejoin="round" stroke-linecap="round" style="opacity: 1; cursor: default; pointer-events: none;"/><path id="d8c4c736-a554-4539-88d7-5ba12d350e9c" d="M 522 47 L 522.25 47 L 522.4375 47.25 L 522.578125 47.6875 L 522.68359375 48.515625 L 522.7626953125 49.63671875 L 523.072021484375 50.7275390625 L 523.3040161132812 52.045654296875 L 523.4780120849609 53.28424072265625 L 523.6085090637207 54.46318054199219 L 523.9563817977905 55.34738540649414 L 524.2172863483429 56.010539054870605 L 524.4129647612572 56.507904291152954 L 524.5597235709429 56.880928218364716 L 524.6697926782072 56.91069616377354 L 524.7523445086554 56.43302212283015 L 525.0642583814915 55.574766592122614 L 525.2981937861186 54.43107494409196 L 525.473645339589 53.07330620806897 L 525.8552340046917 51.80497965605173 L 526.1414255035188 50.853734742038796 L 526.3560691276391 50.1403010565291 L 526.5170518457294 49.60522579239682 L 526.887788884297 49.20391934429762 L 527.1658416632227 49.15293950822321 L 527.6243812474171 49.61470463116741 L 527.9682859355628 50.46102847337556 L 528.4762144516721 51.59577135503167 L 528.8571608387541 52.946828516273754 L 529.3928706290656 54.21012138720532 L 529.7946529717992 55.657591040403986 L 530.0959897288494 56.99319328030299 L 530.3219922966371 57.99489496022724 L 530.4914942224777 58.74617122017043 L 530.6186206668583 59.309628415127825 L 530.7139655001438 59.73222131134587 L 531.0354741251078 59.7991659835094 L 531.2766055938309 59.34937448763205 L 531.7074541953732 58.262030865724036 L 532.0305906465298 56.69652314929303 L 532.5229429848973 54.77239236196977 L 532.892207238673 53.07929427147733 L 533.4191554290047 51.559470703608 L 533.8143665717536 50.419603027706 L 534.3607749288152 49.564702270779506 L 534.7705811966114 48.92352670308463 L 535.0779358974585 48.692645027313475 L 535.5584519230938 48.76948377048511 L 535.9188389423203 49.32711282786383 L 536.4391292067403 50.24533462089787 L 536.8293469050552 51.184000965673405 L 537.1220101787915 52.38800072425505 L 537.5915076340937 53.79100054319129 L 537.9436307255703 55.09325040739347 L 538.2077230441778 56.3199378055451 L 538.4057922831333 57.48995335415883 L 538.55434421235 58.36746501561912 L 538.6657581592625 59.025598761714335 L 538.7493186194469 59.519199071285755 L 539.0619889645851 59.889399303464316 L 539.2964917234389 59.91704947759824 L 539.4723687925791 59.43778710819868" fill="transparent" stroke="#1a1a18" stroke-width="2" stroke-linejoin="round" stroke-linecap="round" style="opacity: 1; cursor: default; pointer-events: none;"/><path id="d287a7bb-4c42-42e6-a8d4-8ee4df4ba483" d="M 544 57 L 544.25 57.25 L 544.4375 57.4375 L 544.578125 57.828125 L 544.68359375 58.12109375 L 545.0126953125 58.5908203125 L 545.259521484375 58.943115234375 L 545.6946411132812 59.20733642578125 L 546.2709808349609 59.15550231933594 L 546.9532356262207 58.86662673950195 L 547.7149267196655 58.399970054626465 L 548.5361950397491 57.54997754096985 L 549.1521462798119 56.41248315572739 L 549.8641097098589 55.05936236679554 L 550.3980822823942 53.794521775096655 L 550.7985617117956 52.59589133132249 L 551.0989212838467 51.44691849849187 L 551.074190962885 50.5851888738689 L 551.0556432221638 49.938891655401676 L 550.7917324166228 49.45416874155126 L 550.3437993124671 49.34062655616344 L 549.7578494843503 49.75546991712258 L 549.0683871132628 50.56660243784194 L 548.3012903349471 51.67495182838145 L 547.7259677512103 53.00621387128609 L 547.2944758134078 54.50466040346457 L 547.2208568600558 56.128495302598424 L 547.4156426450419 57.84637147694882 L 547.8117319837814 59.38477860771161 L 548.358798987836 60.53858395578371 L 549.269099240877 61.40393796683778 L 550.4518244306578 62.052953475128334 L 551.8388683229933 62.53971510634625 L 553.129151242245 62.40478632975969 L 554.5968634316838 62.05358974731976" fill="transparent" stroke="#1a1a18" stroke-width="2" stroke-linejoin="round" stroke-linecap="round" style="opacity: 1; cursor: default; pointer-events: none;"/><path id="7feba29f-7094-4e61-986b-0b1e2544767e" d="M 182 205 L 182 205.25 L 182 205.6875 L 182 206.765625 L 182 208.07421875 L 182 209.5556640625 L 182.25 211.416748046875 L 182.4375 213.31256103515625 L 182.578125 214.9844207763672 L 182.68359375 216.4883155822754 L 182.7626953125 217.86623668670654 L 182.822021484375 218.8996775150299 L 182.86651611328125 219.67475813627243 L 182.89988708496094 220.00606860220432" fill="transparent" stroke="#1a1a18" stroke-width="2" stroke-linejoin="round" stroke-linecap="round" style="opacity: 1; cursor: default; pointer-events: none;"/><path id="f69843ed-c0a9-4c58-8899-9323920ac380" d="M 179 191 L 179.25 190.75 L 179.4375 190.5625 L 179.578125 190.421875 L 179.68359375 190.31640625 L 180.0126953125 190.2373046875 L 180.259521484375 190.177978515625" fill="transparent" stroke="#1a1a18" stroke-width="2" stroke-linejoin="round" stroke-linecap="round" style="opacity: 1; cursor: default; pointer-events: none;"/><path id="fb75cee5-b407-4c9a-b8e2-52b0960ea6c4" d="M 192 210 L 192 210.25 L 192 210.4375 L 192 210.828125 L 192 211.12109375 L 192 211.5908203125 L 192 212.193115234375 L 192 212.89483642578125 L 192 213.67112731933594 L 192 214.50334548950195 L 192 215.12750911712646 L 192 215.84563183784485 L 192 216.38422387838364 L 192.25 216.78816790878773 L 192.4375 217.0911259315908 L 192.578125 217.3183444486931 L 192.68359375 217.23875833651982 L 192.7626953125 216.92906875238987 L 193.072021484375 216.1968015642924 L 193.30401611328125 214.8976011732193 L 193.72801208496094 213.42320087991448 L 194.0460090637207 211.81740065993586 L 194.28450679779053 210.6130504949519 L 194.7133800983429 209.4597878712139 L 195.03503507375717 208.59484090341044 L 195.27627630531788 207.94613067755785 L 195.4572072289884 207.45959800816837 L 195.5929054217413 207.3446985061263 L 195.94467906630598 207.50852387959472 L 196.45850929972949 207.88139290969605 L 196.8438819747971 208.41104468227203 L 197.38291148109784 209.30828351170402 L 197.78718361082338 210.481212633778 L 198.34038770811753 211.8609094753335 L 198.75529078108815 213.39568210650012 L 199.0664680858161 215.0467615798751 L 199.5498510643621 216.53507118490631 L 199.91238829827157 217.90130338867974 L 200.18429122370367 218.9259775415098 L 200.38821841777775 219.69448315613235 L 200.5411638133333 220.27086236709926 L 200.65587286 220.20314677532446 L 200.74190464499998 219.90236008149333" fill="transparent" stroke="#1a1a18" stroke-width="2" stroke-linejoin="round" stroke-linecap="round" style="opacity: 1; cursor: default; pointer-events: none;"/><path id="93629b0d-bb89-45a2-9850-9e930a82318b" d="M 204 207 L 204.25 207.25 L 204.4375 207.9375 L 204.578125 208.703125 L 204.68359375 209.77734375 L 204.7626953125 211.3330078125 L 204.822021484375 213.249755859375 L 205.11651611328125 215.43731689453125 L 205.33738708496094 217.82798767089844 L 205.5030403137207 220.37099075317383 L 205.62728023529053 223.02824306488037 L 205.9704601764679 225.27118229866028 L 206.22784513235092 227.2033867239952 L 206.4208838492632 228.9025400429964 L 206.5656628869474 230.1769050322473 L 206.67424716521055 231.13267877418548 L 206.7556853739079 231.8495090806391 L 206.81676403043093 231.88713181047933 L 206.8625730228232 231.4153488578595 L 206.8969297671174 230.56151164339462 L 206.67269732533805 228.92113373254597 L 206.50452299400354 226.69085029940948 L 206.12839224550265 224.2681377245571 L 205.84629418412698 221.70110329341782 L 205.63472063809525 219.02582747006335 L 205.47604047857143 216.7693706025475 L 205.35703035892857 214.82702795191062 L 205.51777276919643 213.12027096393297 L 205.63832957689732 211.59020322294973 L 205.97874718267298 210.4426524172123 L 206.48406038700472 209.33198931290923 L 207.11304529025352 208.49899198468194 L 207.83478396769016 207.87424398851147 L 208.37608797576763 207.4056829913836 L 209.03206598182572 207.0542622435377 L 209.52404948636928 206.79069668265328 L 210.14303711477697 206.59302251198994 L 210.60727783608274 206.94476688399246 L 210.95545837706206 207.45857516299435 L 211.21659378279654 208.34393137224578 L 211.4124453370974 209.50794852918432 L 211.55933400282305 210.63096139688824 L 211.66950050211727 211.7232210476662 L 211.75212537658797 212.79241578574965 L 211.56409403244098 213.59431183931224 L 211.17307052433074 214.19573387948418 L 210.62980289324804 214.64680040961315 L 209.97235216993602 214.98510030720985 L 209.229264127452 214.98882523040737 L 208.67194809558902 214.49161892280551 L 208.00396107169178 213.86871419210414 L 207.50297080376885 213.1515356440781" fill="transparent" stroke="#1a1a18" stroke-width="2" stroke-linejoin="round" stroke-linecap="round" style="opacity: 1; cursor: default; pointer-events: none;"/><path id="85698d34-b356-4626-88fa-209717d2b746" d="M 220 206 L 220 206.25 L 220 206.4375 L 220 206.828125 L 220 207.62109375 L 220 208.4658203125 L 220 209.599365234375 L 220 210.94952392578125 L 220 212.21214294433594 L 220 213.65910720825195 L 220.25 214.99433040618896 L 220.6875 215.99574780464172 L 221.015625 216.9968108534813 L 221.51171875 217.74760814011097 L 222.1337890625 218.31070610508323 L 222.850341796875 218.73302957881242 L 223.63775634765625 219.04977218410932 L 224.2283172607422 219.287329138082 L 224.92123794555664 219.2154968535615 L 225.69092845916748 218.91162264017112 L 226.5181963443756 218.43371698012834 L 227.1386472582817 217.57528773509625 L 227.60398544371128 216.6814658013222 L 227.95298908278346 215.51109935099163 L 228.2147418120876 214.38332451324374 L 228.4110563590657 213.03749338493282 L 228.55829226929927 211.77812003869963 L 228.66871920197445 210.83359002902472 L 228.75153940148084 209.87519252176855 L 228.81365455111063 209.15639439132642 L 228.86024091333297 208.6172957934948 L 228.89518068499973 208.2129718451211" fill="transparent" stroke="#1a1a18" stroke-width="2" stroke-linejoin="round" stroke-linecap="round" style="opacity: 1; cursor: default; pointer-events: none;"/><path id="42b1c116-42a1-4f5a-a7bd-22b7f07108de" d="M 237 192 L 237 192.25 L 237 192.9375 L 237.25 194.203125 L 237.4375 195.90234375 L 237.828125 197.9267578125 L 238.12109375 200.445068359375 L 238.5908203125 203.33380126953125 L 238.943115234375 206.25035095214844 L 239.45733642578125 208.93776321411133 L 239.84300231933594 211.7033224105835 L 240.13225173950195 214.02749180793762 L 240.34918880462646 216.02061885595322 L 240.51189160346985 217.5154641419649 L 240.6339187026024 218.63659810647368 L 240.7254390269518 219.47744857985526 L 240.79407927021384 220.10808643489145" fill="transparent" stroke="#1a1a18" stroke-width="2" stroke-linejoin="round" stroke-linecap="round" style="opacity: 1; cursor: default; pointer-events: none;"/><path id="0c47db7a-6a59-474b-9804-6221d8f507dc" d="M 232 211 L 232.25 210.75 L 232.6875 210.5625 L 233.015625 210.421875 L 233.51171875 210.31640625 L 234.1337890625 210.2373046875 L 235.100341796875 210.177978515625 L 236.32525634765625 210.13348388671875 L 237.7439422607422 209.85011291503906 L 239.55795669555664 209.3875846862793 L 241.41846752166748 209.04068851470947 L 243.3138506412506 208.5305163860321 L 245.23538798093796 208.14788728952408 L 246.92654098570347 207.86091546714306" fill="transparent" stroke="#1a1a18" stroke-width="2" stroke-linejoin="round" stroke-linecap="round" style="opacity: 1; cursor: default; pointer-events: none;"/><path id="da8230fb-1d21-42ba-bf27-64ecc8e18ccb" d="M 609 201 L 609 201.25 L 609 201.6875 L 608.75 202.265625 L 608.5625 202.94921875 L 608.421875 203.9619140625 L 608.31640625 204.971435546875 L 608.2373046875 205.97857666015625 L 608.177978515625 206.9839324951172 L 608.3834838867188 207.9879493713379 L 608.7876129150391 208.74096202850342 L 609.3407096862793 209.30572152137756 L 610.0055322647095 209.47929114103317 L 610.5041491985321 209.35946835577488 L 611.1281118988991 208.76960126683116 L 611.5960839241743 208.07720095012337 L 611.9470629431307 207.05790071259253 L 612.210297207348 205.7934255344444 L 612.407722905511 204.3450691508333 L 612.5557921791333 202.75880186312497 L 612.41684413435 201.31910139734373 L 612.3126331007625 200.2393260480078 L 612.2344748255719 199.42949453600585 L 611.9258561191789 198.82212090200437 L 611.4443920893841 198.61659067650328 L 611.0832940670381 198.71244300737746 L 610.5624705502786 199.0343322555331" fill="transparent" stroke="#1a1a18" stroke-width="2" stroke-linejoin="round" stroke-linecap="round" style="opacity: 1; cursor: default; pointer-events: none;"/><path id="438d5bf6-57de-4f47-a57b-35bdafcfa129" d="M 626 197 L 626 197.25 L 626 197.9375 L 626 198.703125 L 626 199.77734375 L 626 201.0830078125 L 626.25 202.312255859375 L 626.4375 203.23419189453125 L 626.828125 204.17564392089844 L 627.62109375 204.88173294067383 L 628.4658203125 205.41129970550537 L 629.349365234375 205.55847477912903 L 630.2620239257812 205.41885608434677 L 631.1965179443359 204.81414206326008 L 631.897388458252 203.86060654744506 L 632.423041343689 202.6454549105838 L 632.8172810077667 201.23409118293785 L 633.112960755825 199.67556838720338 L 633.3347205668688 198.25667629040254 L 633.5010404251516 196.9425072178019 L 633.6257803188637 195.70688041335143 L 633.4693352391478 194.78016031001357" fill="transparent" stroke="#1a1a18" stroke-width="2" stroke-linejoin="round" stroke-linecap="round" style="opacity: 1; cursor: default; pointer-events: none;"/><path id="afaec75e-d3c0-4a28-a8ee-24817bb2e513" d="M 645 178 L 645 178.25 L 645.25 178.9375 L 645.4375 180.203125 L 645.828125 181.90234375 L 646.12109375 184.4267578125 L 646.3408203125 187.320068359375 L 646.505615234375 190.74005126953125 L 646.6292114257812 194.30503845214844 L 646.4719085693359 197.97877883911133 L 646.353931427002 201.4840841293335 L 646.2654485702515 204.36306309700012 L 645.9490864276886 206.7722973227501 L 645.7118148207664 208.57922299206257 L 645.2838611155748 209.68441724404693" fill="transparent" stroke="#1a1a18" stroke-width="2" stroke-linejoin="round" stroke-linecap="round" style="opacity: 1; cursor: default; pointer-events: none;"/><path id="5ea378d8-59e8-4161-8419-4014467590a2" d="M 639 197 L 639.25 197 L 639.4375 197 L 640.078125 197 L 640.80859375 197 L 641.8564453125 197 L 643.142333984375 196.75 L 644.8567504882812 196.5625 L 646.6425628662109 196.171875 L 648.4819221496582 195.62890625 L 650.3614416122437 194.9716796875 L 652.0210812091827 194.478759765625" fill="transparent" stroke="#1a1a18" stroke-width="2" stroke-linejoin="round" stroke-linecap="round" style="opacity: 1; cursor: default; pointer-events: none;"/><path id="da77a612-0a9a-4329-8a6b-e59b64f1abb7" d="M 663 203 L 663 203.25 L 663 203.6875 L 663 204.765625 L 663 206.07421875 L 663 208.0556640625 L 663 210.291748046875 L 663 212.71881103515625 L 663 215.0391082763672 L 663 217.0293312072754 L 663 218.77199840545654 L 663 220.0789988040924 L 663 221.0592491030693 L 663 221.79443682730198 L 662.75 221.84582762047648 L 662.5625 221.38437071535736 L 662.171875 220.28827803651802 L 661.87890625 218.71620852738852 L 661.6591796875 216.5371563955414 L 661.494384765625 213.90286729665604 L 661.3707885742188 210.92715047249203 L 661.2780914306641 208.19536285436902 L 661.208568572998 205.89652214077677 L 661.1564264297485 203.92239160558256 L 661.3673198223114 202.44179370418692 L 661.5254898667336 201.3313452781402 L 661.8941174000502 200.49850895860516 L 662.4205880500376 200.12388171895387 L 663.0654410375282 200.0929112892154 L 663.7990807781462 200.31968346691156 L 664.5993105836096 200.73976260018367 L 665.4494829377072 201.30482195013775 L 666.0871122032804 201.97861646260333 L 666.8153341524603 202.7339623469525 L 667.3615006143452 203.55047176021438 L 667.7711254607589 204.1628538201608 L 668.0783440955692 204.8721403651206 L 668.0587580716768 205.40410527384046 L 668.0440685537576 205.80307895538033 L 667.5330514153181 206.10230921653525 L 666.8997885614885 206.32673191240144 L 665.9248414211164 206.49504893430108 L 664.9436310658373 206.62128670072582 L 663.7077232993779 206.46596502554436 L 662.5307924745334 206.09947376915827 L 661.3980943559001 205.5746053268687 L 660.5485707669251 205.18095399515153 L 659.9114280751938 204.88571549636364" fill="transparent" stroke="#1a1a18" stroke-width="2" stroke-linejoin="round" stroke-linecap="round" style="opacity: 1; cursor: default; pointer-events: none;"/><path id="6a48621c-0202-433a-85da-a72c94fca27f" d="M 676 198 L 676 198.25 L 676 198.6875 L 676 199.265625 L 676 200.19921875 L 676 201.3994140625 L 676 202.799560546875 L 676.25 204.09967041015625 L 676.6875 205.3247528076172 L 677.265625 206.4935646057129 L 677.94921875 207.37017345428467 L 678.7119140625 208.0276300907135 L 679.533935546875 208.52072256803513 L 680.4004516601562 208.64054192602634 L 681.3003387451172 208.23040644451976 L 681.9752540588379 207.42280483338982 L 682.7314405441284 206.31710362504236 L 683.2985804080963 204.98782771878177 L 683.7239353060722 203.74087078908633 L 684.0429514795542 202.30565309181475 L 684.2822136096656 200.97923981886106 L 684.2116602072492 199.9844298641458 L 684.1587451554369 199.23832239810935" fill="transparent" stroke="#1a1a18" stroke-width="2" stroke-linejoin="round" stroke-linecap="round" style="opacity: 1; cursor: default; pointer-events: none;"/><path id="76ba51af-923b-4e62-abce-b938d5da8421" d="M 688 180 L 688.25 180 L 688.4375 180 L 688.578125 180 L 688.68359375 180.25 L 689.0126953125 180.9375 L 689.259521484375 182.203125 L 689.6946411132812 184.15234375 L 690.0209808349609 186.6142578125 L 690.5157356262207 189.460693359375 L 690.8868017196655 192.84552001953125 L 691.1651012897491 196.63414001464844 L 691.3738259673119 200.22560501098633 L 691.5303694754839 203.66920375823975 L 691.6477771066129 206.7519028186798 L 691.7358328299597 209.06392711400986 L 691.8018746224698 211.0479453355074 L 691.8514059668523 212.53595900163054 L 691.8885544751392 213.4019692512229 L 691.6664158563544 213.80147693841718" fill="transparent" stroke="#1a1a18" stroke-width="2" stroke-linejoin="round" stroke-linecap="round" style="opacity: 1; cursor: default; pointer-events: none;"/><path id="8784d558-5181-4f5f-a5a5-243782d1cc07" d="M 686 201 L 686.25 200.75 L 686.6875 200.3125 L 687.265625 199.984375 L 688.19921875 199.48828125 L 689.1494140625 198.8662109375 L 690.362060546875 198.399658203125 L 691.7715454101562 197.79974365234375 L 693.3286590576172 197.3498077392578 L 694.9964942932129 197.01235580444336 L 696.4973707199097 196.75926685333252 L 697.8730280399323 196.5694501399994 L 698.9047710299492 196.42708760499954" fill="transparent" stroke="#1a1a18" stroke-width="2" stroke-linejoin="round" stroke-linecap="round" style="opacity: 1; cursor: default; pointer-events: none;"/><path id="48abc3a4-bf93-4db4-92be-73e88de1d2f1" d="M 351 161 L 350.5 161 L 349.875 161 L 349.15625 161.25 L 348.3671875 161.6875 L 347.525390625 162.265625 L 346.64404296875 162.69921875 L 345.7330322265625 163.2744140625 L 344.7997741699219 163.955810546875 L 343.8498306274414 164.46685791015625 L 342.88737297058105 165.1001434326172 L 341.9155297279358 165.5751075744629 L 340.93664729595184 166.18133068084717 L 340.2024854719639 166.63599801063538 L 339.6518641039729 166.97699850797653 L 339.2388980779797 167.2327488809824 L 338.92917355848476 167.4245616607368 L 338.6968801688636 167.5684212455526 L 338.5226601266477 167.67631593416445 L 338.39199509498576 167.75723695062334 L 338.2939963212393 167.8179277129675 L 338.7204972409295 167.86344578472563 L 339.2903729306971 167.64758433854422 L 339.9677796980228 167.23568825390817 L 340.97583477351714 166.67676619043112 L 341.98187608013785 166.00757464282333 L 343.2364070601034 165.2556809821175 L 344.42730529507753 164.44176073658812 L 345.82047897130815 163.5813205524411 L 347.1153592284811 162.68599041433083 L 348.08651942136083 161.76449281074812 L 349.0648895660206 161.07336960806109 L 349.79866717451546 160.55502720604582 L 350.3490003808866 160.16627040453437 L 350.76175028566496 159.8747028034008 L 351.07131271424873 159.65602710255058 L 351.30348453568655 159.24202032691295 L 351.4776134017649 158.9315152451847 L 351.3582100513237 158.6986364338885 L 351.0186575384928 158.27397732541638 L 350.2639931538696 157.7054829940623 L 349.19799486540217 157.2791122455467 L 347.64849614905165 156.70933418416004 L 345.98637211178874 155.78200063812002 L 343.98977908384154 154.83650047859 L 341.99233431288116 153.62737535894252 L 340.24425073466085 152.22053151920687 L 338.6831880509956 150.66539863940517 L 337.26239103824673 148.9990489795539" fill="transparent" stroke="#1a1a18" stroke-width="2" stroke-linejoin="round" stroke-linecap="round" style="opacity: 1; cursor: default; pointer-events: none;"/><path id="9c5512fc-adb6-4e6a-96f7-80443ff383b4" d="M 619 156 L 618.75 156.25 L 618.5625 156.4375 L 618.171875 156.578125 L 617.87890625 156.68359375 L 617.4091796875 157.0126953125 L 616.806884765625 157.259521484375 L 616.1051635742188 157.69464111328125 L 615.3288726806641 158.27098083496094 L 614.496654510498 158.9532356262207 L 613.6224908828735 159.71492671966553 L 612.7168681621552 160.53619503974915 L 612.0376511216164 161.15214627981186 L 611.2782383412123 161.6141097098589 L 610.7086787559092 162.21058228239417 L 610.0315090669319 162.65793671179563 L 609.5236318001989 162.99345253384672 L 609.1427238501492 163.24508940038504 L 608.8570428876119 163.43381705028878 L 608.6427821657089 163.57536278771659 L 608.7320866242817 163.68152209078744 L 608.7990649682113 163.76114156809058 L 609.0992987261584 163.57085617606793 L 609.8244740446188 163.42814213205094 L 610.6183555334641 163.07110659903822 L 611.463766650098 162.55332994927866 L 612.5978249875735 161.914997461959 L 613.6983687406802 161.18624809646923 L 614.7737765555102 160.38968607235194 L 615.5803324166326 159.79226455426397 L 616.4352493124744 159.09419841569797 L 617.0764369843558 158.57064881177348 L 617.5573277382668 158.1779866088301 L 617.9179958037001 157.88348995662258 L 618.1884968527751 157.41261746746693 L 618.3913726395813 157.0594631006002 L 618.293529479686 156.79459732545016 L 617.9701471097644 156.09594799408762 L 617.4776103323234 155.32196099556572 L 616.6082077492425 154.49147074667428 L 615.4561558119319 153.3686030600057 L 614.3421168589489 152.27645229500428 L 613.2565876442117 150.95733922125322 L 611.9424407331587 149.4680044159399" fill="transparent" stroke="#1a1a18" stroke-width="2" stroke-linejoin="round" stroke-linecap="round" style="opacity: 1; cursor: default; pointer-events: none;"/></svg>